<svg xmlns="http://www.w3.org/2000/svg" viewBox="0 0 800 360" width="100%" height="100%">
  <defs>
    <linearGradient id="finBg" x1="0%" y1="0%" x2="100%" y2="100%">
      <stop offset="0%" stop-color="#0f172a" />
      <stop offset="50%" stop-color="#1e1b4b" />
      <stop offset="100%" stop-color="#0369a1" />
    </linearGradient>
    <linearGradient id="shieldShine" x1="0%" y1="0%" x2="100%" y2="100%">
      <stop offset="0%" stop-color="#38bdf8"/>
      <stop offset="100%" stop-color="#0284c7"/>
    </linearGradient>
  </defs>
  <rect width="800" height="360" fill="url(#finBg)" />
  <g stroke="#334155" stroke-width="1.2" opacity="0.4">
    <line x1="100" y1="80" x2="250" y2="160" />
    <line x1="250" y1="160" x2="380" y2="110" />
    <line x1="380" y1="110" x2="520" y2="200" />
    <line x1="520" y1="200" x2="680" y2="150" />
    <line x1="250" y1="160" x2="280" y2="290" />
    <line x1="520" y1="200" x2="590" y2="300" />
  </g>
  <circle cx="100" cy="80" r="4" fill="#38bdf8" opacity="0.6"/>
  <circle cx="250" cy="160" r="6" fill="#38bdf8"/>
  <circle cx="380" cy="110" r="5" fill="#38bdf8" opacity="0.8"/>
  <circle cx="520" cy="200" r="7" fill="#0284c7"/>
  <circle cx="680" cy="150" r="5" fill="#38bdf8" opacity="0.7"/>
  <circle cx="600" cy="170" r="90" fill="#0284c7" opacity="0.2"/>
  <circle cx="600" cy="170" r="65" fill="#0f172a" stroke="#38bdf8" stroke-width="2" opacity="0.9"/>
  <path d="M600,120 L635,135 C635,175 600,205 600,205 C600,205 565,175 565,135 Z" fill="url(#shieldShine)"/>
  <path d="M600,128 L628,140 C628,170 600,195 600,195 C600,195 572,170 572,140 Z" fill="#0f172a"/>
  <path d="M587,158 L596,167 L615,147" fill="none" stroke="#38bdf8" stroke-width="3.5" stroke-linecap="round" stroke-linejoin="round"/>
  <path d="M0,280 C180,240 320,330 500,290 C620,260 710,300 800,270" fill="none" stroke="#0284c7" stroke-width="2" opacity="0.5"/>
  <path d="M0,300 C180,260 320,350 500,310 C620,280 710,320 800,290" fill="none" stroke="#38bdf8" stroke-width="1.2" opacity="0.3"/>
</svg>
